<svg width="1920" height="1080" viewBox="0 0 1920 1080" fill="none" xmlns="http://www.w3.org/2000/svg"><rect width="1920" height="1080" fill="#0D1117"/><!-- 抽象几何图形 --><path d="M-100 200L200 -100L500 200L800 -100L1100 200L1400 -100L1700 200L2000 -100" stroke="#FF4D4D" stroke-width="1" stroke-opacity="0.1"/><path d="M-100 400L200 100L500 400L800 100L1100 400L1400 100L1700 400L2000 100" stroke="#FF4D4D" stroke-width="1" stroke-opacity="0.1"/><path d="M-100 600L200 300L500 600L800 300L1100 600L1400 300L1700 600L2000 300" stroke="#FF4D4D" stroke-width="1" stroke-opacity="0.1"/><path d="M-100 800L200 500L500 800L800 500L1100 800L1400 500L1700 800L2000 500" stroke="#FF4D4D" stroke-width="1" stroke-opacity="0.1"/><path d="M-100 1000L200 700L500 1000L800 700L1100 1000L1400 700L1700 1000L2000 700" stroke="#FF4D4D" stroke-width="1" stroke-opacity="0.1"/><path d="M-100 1200L200 900L500 1200L800 900L1100 1200L1400 900L1700 1200L2000 900" stroke="#FF4D4D" stroke-width="1" stroke-opacity="0.1"/><!-- 垂直线 --><path d="M100 -100V1200" stroke="#FF4D4D" stroke-width="1" stroke-opacity="0.05"/><path d="M300 -100V1200" stroke="#FF4D4D" stroke-width="1" stroke-opacity="0.05"/><path d="M500 -100V1200" stroke="#FF4D4D" stroke-width="1" stroke-opacity="0.05"/><path d="M700 -100V1200" stroke="#FF4D4D" stroke-width="1" stroke-opacity="0.05"/><path d="M900 -100V1200" stroke="#FF4D4D" stroke-width="1" stroke-opacity="0.05"/><path d="M1100 -100V1200" stroke="#FF4D4D" stroke-width="1" stroke-opacity="0.05"/><path d="M1300 -100V1200" stroke="#FF4D4D" stroke-width="1" stroke-opacity="0.05"/><path d="M1500 -100V1200" stroke="#FF4D4D" stroke-width="1" stroke-opacity="0.05"/><path d="M1700 -100V1200" stroke="#FF4D4D" stroke-width="1" stroke-opacity="0.05"/><path d="M1900 -100V1200" stroke="#FF4D4D" stroke-width="1" stroke-opacity="0.05"/><!-- 点缀的圆点 --><circle cx="100" cy="100" r="3" fill="#FF4D4D" fill-opacity="0.2"/><circle cx="500" cy="300" r="4" fill="#FF4D4D" fill-opacity="0.2"/><circle cx="900" cy="200" r="5" fill="#FF4D4D" fill-opacity="0.2"/><circle cx="1300" cy="400" r="3" fill="#FF4D4D" fill-opacity="0.2"/><circle cx="1700" cy="100" r="4" fill="#FF4D4D" fill-opacity="0.2"/><circle cx="300" cy="500" r="3" fill="#FF4D4D" fill-opacity="0.2"/><circle cx="700" cy="700" r="5" fill="#FF4D4D" fill-opacity="0.2"/><circle cx="1100" cy="600" r="4" fill="#FF4D4D" fill-opacity="0.2"/><circle cx="1500" cy="800" r="3" fill="#FF4D4D" fill-opacity="0.2"/><circle cx="1900" cy="900" r="5" fill="#FF4D4D" fill-opacity="0.2"/></svg>