<svg width="600" height="400" viewBox="0 0 600 400" fill="none" xmlns="http://www.w3.org/2000/svg">
  <rect width="600" height="400" fill="#0D1117"/>
  <rect width="600" height="400" fill="#FF4D4D" opacity="0.1"/>
  
  <!-- 团队图标设计 -->
  <circle cx="300" cy="150" r="80" fill="#161B22"/>
  <path d="M270 120C270 111.716 276.716 105 285 105H315C323.284 105 330 111.716 330 120V180C330 188.284 323.284 195 315 195H285C276.716 195 270 188.284 270 180V120Z" fill="#FF4D4D"/>
  <circle cx="300" cy="90" r="25" fill="#FF4D4D"/>
  
  <!-- 团队成员图标 -->
  <circle cx="170" cy="250" r="40" fill="#161B22"/>
  <path d="M155 235C155 230.582 158.582 227 163 227H177C181.418 227 185 230.582 185 235V265C185 269.418 181.418 273 177 273H163C158.582 273 155 269.418 155 265V235Z" fill="#FF4D4D"/>
  <circle cx="170" cy="215" r="15" fill="#FF4D4D"/>
  
  <circle cx="300" cy="250" r="40" fill="#161B22"/>
  <path d="M285 235C285 230.582 288.582 227 293 227H307C311.418 227 315 230.582 315 235V265C315 269.418 311.418 273 307 273H293C288.582 273 285 269.418 285 265V235Z" fill="#FF4D4D"/>
  <circle cx="300" cy="215" r="15" fill="#FF4D4D"/>
  
  <circle cx="430" cy="250" r="40" fill="#161B22"/>
  <path d="M415 235C415 230.582 418.582 227 423 227H437C441.418 227 445 230.582 445 235V265C445 269.418 441.418 273 437 273H423C418.582 273 415 269.418 415 265V235Z" fill="#FF4D4D"/>
  <circle cx="430" cy="215" r="15" fill="#FF4D4D"/>
  
  <!-- 连接线 -->
  <path d="M300 180L170 215" stroke="#FF4D4D" stroke-width="2"/>
  <path d="M300 180L300 215" stroke="#FF4D4D" stroke-width="2"/>
  <path d="M300 180L430 215" stroke="#FF4D4D" stroke-width="2"/>
  
  <!-- 文字 -->
  <text x="300" y="350" font-family="Arial, sans-serif" font-size="24" fill="#FFFFFF" text-anchor="middle">国漫世界团队</text>
</svg> 