<svg width="150" height="40" viewBox="0 0 150 40" fill="none" xmlns="http://www.w3.org/2000/svg">
  <rect width="40" height="40" rx="8" fill="#0D1117"/>
  <path d="M12 28C12 24.6863 14.6863 22 18 22H22C25.3137 22 28 24.6863 28 28V29C28 29.5523 27.5523 30 27 30H13C12.4477 30 12 29.5523 12 29V28Z" fill="#FF4D4D"/>
  <circle cx="20" cy="16" r="6" fill="#FF4D4D"/>
  <path d="M20 22L18 16H22L20 22Z" fill="#FFB800"/>
  <rect x="18" y="27" width="4" height="3" fill="#FFB800"/>
  <path d="M15 14L20 12L25 14" stroke="white" stroke-width="1.5" stroke-linecap="round"/>
  
  <path d="M44 25V14H47.8L50.9 21.5L54 14H57.8V25H55.2V17.7L52.1 25H49.7L46.6 17.7V25H44Z" fill="white"/>
  <path d="M65.7 25.2C64.3333 25.2 63.1833 24.9167 62.25 24.35C61.3167 23.7833 60.6 23 60.1 22C59.6 21 59.35 19.8833 59.35 18.65C59.35 17.4167 59.6 16.3 60.1 15.3C60.6 14.3 61.3167 13.5167 62.25 12.95C63.1833 12.3833 64.3333 12.1 65.7 12.1C67.0667 12.1 68.2167 12.3833 69.15 12.95C70.0833 13.5167 70.8 14.3 71.3 15.3C71.8 16.3 72.05 17.4167 72.05 18.65C72.05 19.8833 71.8 21 71.3 22C70.8 23 70.0833 23.7833 69.15 24.35C68.2167 24.9167 67.0667 25.2 65.7 25.2ZM65.7 22.8C66.8 22.8 67.6333 22.45 68.2 21.75C68.7667 21.05 69.05 20 69.05 18.6C69.05 17.2 68.7667 16.15 68.2 15.45C67.6333 14.75 66.8 14.4 65.7 14.4C64.6 14.4 63.7667 14.75 63.2 15.45C62.6333 16.15 62.35 17.2 62.35 18.6C62.35 20 62.6333 21.05 63.2 21.75C63.7667 22.45 64.6 22.8 65.7 22.8Z" fill="white"/>
  
  <path fill="#FF4D4D" d="M80 12.5H88V14.5H82.5V17.5H87V19.5H82.5V23H88V25H80V12.5Z"/>
  <path fill="#FF4D4D" d="M94 12.5H91V25H94V20H99V18H94V14.5H100V12.5H94Z"/>
  <path fill="#FF4D4D" d="M107 25H104V12.5H107V18H111.5V12.5H114.5V25H111.5V20H107V25Z"/>
</svg> 